<svg baseProfile="full" height="360px" preserveAspectRatio="xMidYMid meet" style="font-family: times, serif; font-weight: normal; font-style: normal; font-size: 16px" version="1.1" viewBox="0,0,864.0,360.0" width="864px" xmlns="http://www.w3.org/2000/svg" xmlns:ev="http://www.w3.org/2001/xml-events" xmlns:xlink="http://www.w3.org/1999/xlink"><defs /><svg width="100%" x="0" y="0px"><defs /><text text-anchor="middle" x="50%" y="16px">S</text></svg><svg width="11.1111%" x="0%" y="48px"><defs /><svg width="100%" x="0" y="0px"><defs /><text text-anchor="middle" x="50%" y="16px">S</text></svg><svg width="100%" x="0%" y="48px"><defs /><svg width="100%" x="0" y="0px"><defs /><text text-anchor="middle" x="50%" y="16px">VP</text></svg><svg width="100%" x="0%" y="48px"><defs /><svg width="100%" x="0" y="0px"><defs /><text text-anchor="middle" x="50%" y="16px">VBN</text></svg><svg width="100%" x="0%" y="48px"><defs /><svg width="100%" x="0" y="0px"><defs /><text text-anchor="middle" x="50%" y="16px">Fascinated</text></svg></svg><line stroke="black" x1="50%" x2="50%" y1="20px" y2="48px" /></svg><line stroke="black" x1="50%" x2="50%" y1="20px" y2="48px" /></svg><line stroke="black" x1="50%" x2="50%" y1="20px" y2="48px" /></svg><line stroke="black" x1="50%" x2="5.55556%" y1="20px" y2="48px" /><svg width="2.77778%" x="11.1111%" y="48px"><defs /><svg width="100%" x="0" y="0px"><defs /><text text-anchor="middle" x="50%" y="16px">,</text></svg><svg width="100%" x="0%" y="48px"><defs /><svg width="100%" x="0" y="0px"><defs /><text text-anchor="middle" x="50%" y="16px">,</text></svg></svg><line stroke="black" x1="50%" x2="50%" y1="20px" y2="48px" /></svg><line stroke="black" x1="50%" x2="12.5%" y1="20px" y2="48px" /><svg width="4.62963%" x="13.8889%" y="48px"><defs /><svg width="100%" x="0" y="0px"><defs /><text text-anchor="middle" x="50%" y="16px">NP</text></svg><svg width="100%" x="0%" y="48px"><defs /><svg width="100%" x="0" y="0px"><defs /><text text-anchor="middle" x="50%" y="16px">PRP</text></svg><svg width="100%" x="0%" y="48px"><defs /><svg width="100%" x="0" y="0px"><defs /><text text-anchor="middle" x="50%" y="16px">we</text></svg></svg><line stroke="black" x1="50%" x2="50%" y1="20px" y2="48px" /></svg><line stroke="black" x1="50%" x2="50%" y1="20px" y2="48px" /></svg><line stroke="black" x1="50%" x2="16.2037%" y1="20px" y2="48px" /><svg width="78.7037%" x="18.5185%" y="48px"><defs /><svg width="100%" x="0" y="0px"><defs /><text text-anchor="middle" x="50%" y="16px">VP</text></svg><svg width="9.41176%" x="0%" y="48px"><defs /><svg width="100%" x="0" y="0px"><defs /><text text-anchor="middle" x="50%" y="16px">VBD</text></svg><svg width="100%" x="0%" y="48px"><defs /><svg width="100%" x="0" y="0px"><defs /><text text-anchor="middle" x="50%" y="16px">looked</text></svg></svg><line stroke="black" x1="50%" x2="50%" y1="20px" y2="48px" /></svg><line stroke="black" x1="50%" x2="4.70588%" y1="20px" y2="48px" /><svg width="90.5882%" x="9.41176%" y="48px"><defs /><svg width="100%" x="0" y="0px"><defs /><text text-anchor="middle" x="50%" y="16px">PP</text></svg><svg width="5.19481%" x="0%" y="48px"><defs /><svg width="100%" x="0" y="0px"><defs /><text text-anchor="middle" x="50%" y="16px">IN</text></svg><svg width="100%" x="0%" y="48px"><defs /><svg width="100%" x="0" y="0px"><defs /><text text-anchor="middle" x="50%" y="16px">at</text></svg></svg><line stroke="black" x1="50%" x2="50%" y1="20px" y2="48px" /></svg><line stroke="black" x1="50%" x2="2.5974%" y1="20px" y2="48px" /><svg width="94.8052%" x="5.19481%" y="48px"><defs /><svg width="100%" x="0" y="0px"><defs /><text text-anchor="middle" x="50%" y="16px">NP</text></svg><svg width="60.274%" x="0%" y="48px"><defs /><svg width="100%" x="0" y="0px"><defs /><text text-anchor="middle" x="50%" y="16px">NP</text></svg><svg width="11.3636%" x="0%" y="48px"><defs /><svg width="100%" x="0" y="0px"><defs /><text text-anchor="middle" x="50%" y="16px">DT</text></svg><svg width="100%" x="0%" y="48px"><defs /><svg width="100%" x="0" y="0px"><defs /><text text-anchor="middle" x="50%" y="16px">the</text></svg></svg><line stroke="black" x1="50%" x2="50%" y1="20px" y2="48px" /></svg><line stroke="black" x1="50%" x2="5.68182%" y1="20px" y2="48px" /><svg width="13.6364%" x="11.3636%" y="48px"><defs /><svg width="100%" x="0" y="0px"><defs /><text text-anchor="middle" x="50%" y="16px">JJ</text></svg><svg width="100%" x="0%" y="48px"><defs /><svg width="100%" x="0" y="0px"><defs /><text text-anchor="middle" x="50%" y="16px">many</text></svg></svg><line stroke="black" x1="50%" x2="50%" y1="20px" y2="48px" /></svg><line stroke="black" x1="50%" x2="18.1818%" y1="20px" y2="48px" /><svg width="27.2727%" x="25%" y="48px"><defs /><svg width="100%" x="0" y="0px"><defs /><text text-anchor="middle" x="50%" y="16px">VBG</text></svg><svg width="100%" x="0%" y="48px"><defs /><svg width="100%" x="0" y="0px"><defs /><text text-anchor="middle" x="50%" y="16px">glittering</text></svg></svg><line stroke="black" x1="50%" x2="50%" y1="20px" y2="48px" /></svg><line stroke="black" x1="50%" x2="38.6364%" y1="20px" y2="48px" /><svg width="25%" x="52.2727%" y="48px"><defs /><svg width="100%" x="0" y="0px"><defs /><text text-anchor="middle" x="50%" y="16px">NNP</text></svg><svg width="100%" x="0%" y="48px"><defs /><svg width="100%" x="0" y="0px"><defs /><text text-anchor="middle" x="50%" y="16px">Christmas</text></svg></svg><line stroke="black" x1="50%" x2="50%" y1="20px" y2="48px" /></svg><line stroke="black" x1="50%" x2="64.7727%" y1="20px" y2="48px" /><svg width="22.7273%" x="77.2727%" y="48px"><defs /><svg width="100%" x="0" y="0px"><defs /><text text-anchor="middle" x="50%" y="16px">NNS</text></svg><svg width="100%" x="0%" y="48px"><defs /><svg width="100%" x="0" y="0px"><defs /><text text-anchor="middle" x="50%" y="16px">artworks</text></svg></svg><line stroke="black" x1="50%" x2="50%" y1="20px" y2="48px" /></svg><line stroke="black" x1="50%" x2="88.6364%" y1="20px" y2="48px" /></svg><line stroke="black" x1="50%" x2="30.137%" y1="20px" y2="48px" /><svg width="39.726%" x="60.274%" y="48px"><defs /><svg width="100%" x="0" y="0px"><defs /><text text-anchor="middle" x="50%" y="16px">PP</text></svg><svg width="13.7931%" x="0%" y="48px"><defs /><svg width="100%" x="0" y="0px"><defs /><text text-anchor="middle" x="50%" y="16px">IN</text></svg><svg width="100%" x="0%" y="48px"><defs /><svg width="100%" x="0" y="0px"><defs /><text text-anchor="middle" x="50%" y="16px">on</text></svg></svg><line stroke="black" x1="50%" x2="50%" y1="20px" y2="48px" /></svg><line stroke="black" x1="50%" x2="6.89655%" y1="20px" y2="48px" /><svg width="86.2069%" x="13.7931%" y="48px"><defs /><svg width="100%" x="0" y="0px"><defs /><text text-anchor="middle" x="50%" y="16px">NP</text></svg><svg width="20%" x="0%" y="48px"><defs /><svg width="100%" x="0" y="0px"><defs /><text text-anchor="middle" x="50%" y="16px">DT</text></svg><svg width="100%" x="0%" y="48px"><defs /><svg width="100%" x="0" y="0px"><defs /><text text-anchor="middle" x="50%" y="16px">the</text></svg></svg><line stroke="black" x1="50%" x2="50%" y1="20px" y2="48px" /></svg><line stroke="black" x1="50%" x2="10%" y1="20px" y2="48px" /><svg width="48%" x="20%" y="48px"><defs /><svg width="100%" x="0" y="0px"><defs /><text text-anchor="middle" x="50%" y="16px">JJ</text></svg><svg width="100%" x="0%" y="48px"><defs /><svg width="100%" x="0" y="0px"><defs /><text text-anchor="middle" x="50%" y="16px">individual</text></svg></svg><line stroke="black" x1="50%" x2="50%" y1="20px" y2="48px" /></svg><line stroke="black" x1="50%" x2="44%" y1="20px" y2="48px" /><svg width="32%" x="68%" y="48px"><defs /><svg width="100%" x="0" y="0px"><defs /><text text-anchor="middle" x="50%" y="16px">NNS</text></svg><svg width="100%" x="0%" y="48px"><defs /><svg width="100%" x="0" y="0px"><defs /><text text-anchor="middle" x="50%" y="16px">stalls</text></svg></svg><line stroke="black" x1="50%" x2="50%" y1="20px" y2="48px" /></svg><line stroke="black" x1="50%" x2="84%" y1="20px" y2="48px" /></svg><line stroke="black" x1="50%" x2="56.8966%" y1="20px" y2="48px" /></svg><line stroke="black" x1="50%" x2="80.137%" y1="20px" y2="48px" /></svg><line stroke="black" x1="50%" x2="52.5974%" y1="20px" y2="48px" /></svg><line stroke="black" x1="50%" x2="54.7059%" y1="20px" y2="48px" /></svg><line stroke="black" x1="50%" x2="57.8704%" y1="20px" y2="48px" /><svg width="2.77778%" x="97.2222%" y="48px"><defs /><svg width="100%" x="0" y="0px"><defs /><text text-anchor="middle" x="50%" y="16px">.</text></svg><svg width="100%" x="0%" y="48px"><defs /><svg width="100%" x="0" y="0px"><defs /><text text-anchor="middle" x="50%" y="16px">.</text></svg></svg><line stroke="black" x1="50%" x2="50%" y1="20px" y2="48px" /></svg><line stroke="black" x1="50%" x2="98.6111%" y1="20px" y2="48px" /></svg>